<svg width="229" height="87" viewBox="0 0 229 87" fill="none" xmlns="http://www.w3.org/2000/svg">
<path d="M68.2488 14.04L67.5688 15.9H71.3888L70.7088 14.04C70.4821 13.4133 70.2754 12.84 70.0888 12.32C69.9021 11.8 69.7088 11.24 69.5088 10.64H69.4288C69.2288 11.24 69.0354 11.8067 68.8488 12.34C68.6754 12.86 68.4754 13.4267 68.2488 14.04ZM65.1288 20L69.0088 9.76H69.9488L73.8288 20H72.8688L71.6488 16.64H67.2888L66.0488 20H65.1288ZM75.9322 20V9.76H78.5522C79.4055 9.76 80.1522 9.88 80.7922 10.12C81.4455 10.3467 81.9855 10.68 82.4122 11.12C82.8389 11.56 83.1589 12.1 83.3722 12.74C83.5855 13.3667 83.6922 14.0733 83.6922 14.86C83.6922 15.6467 83.5855 16.36 83.3722 17C83.1589 17.6267 82.8389 18.1667 82.4122 18.62C81.9855 19.06 81.4522 19.4 80.8122 19.64C80.1722 19.88 79.4255 20 78.5722 20H75.9322ZM76.8522 19.26H78.5122C79.9789 19.26 81.0455 18.8733 81.7122 18.1C82.3922 17.3267 82.7322 16.2467 82.7322 14.86C82.7322 14.2067 82.6455 13.6133 82.4722 13.08C82.3122 12.5467 82.0589 12.0933 81.7122 11.72C81.3789 11.3333 80.9455 11.0333 80.4122 10.82C79.8789 10.6067 79.2455 10.5 78.5122 10.5H76.8522V19.26ZM88.3767 20L84.7167 9.76H85.6967L87.6767 15.56C87.8901 16.1867 88.0834 16.7667 88.2567 17.3C88.4434 17.82 88.6434 18.3867 88.8567 19H88.9367C89.1501 18.3867 89.3367 17.82 89.4967 17.3C89.6701 16.7667 89.8634 16.1867 90.0767 15.56L92.0367 9.76H92.9567L89.3567 20H88.3767ZM94.9947 20V9.76H101.135V10.52H95.9147V14.2H100.335V14.94H95.9147V19.24H101.335V20H94.9947ZM104.213 20V9.76H107.453C108.013 9.76 108.52 9.81333 108.973 9.92C109.427 10.0133 109.813 10.1733 110.133 10.4C110.453 10.6133 110.7 10.9 110.873 11.26C111.06 11.6067 111.153 12.0333 111.153 12.54C111.153 13.3533 110.907 14 110.413 14.48C109.92 14.96 109.247 15.26 108.393 15.38L111.393 20H110.373L107.413 15.44H105.133V20H104.213ZM105.133 14.72H107.253C109.253 14.72 110.253 14 110.253 12.56C110.253 11.8 109.993 11.2667 109.473 10.96C108.967 10.6533 108.227 10.5 107.253 10.5H105.133V14.72ZM115.982 20V10.54H112.482V9.76H120.382V10.54H116.902V20H115.982ZM126.119 20.24C125.439 20.24 124.812 20.1133 124.239 19.86C123.679 19.6067 123.192 19.2467 122.779 18.78C122.366 18.3133 122.046 17.7533 121.819 17.1C121.592 16.4333 121.479 15.6867 121.479 14.86C121.479 14.0333 121.592 13.2933 121.819 12.64C122.046 11.9733 122.366 11.4133 122.779 10.96C123.192 10.4933 123.679 10.14 124.239 9.9C124.812 9.64667 125.439 9.52 126.119 9.52C126.799 9.52 127.419 9.64667 127.979 9.9C128.552 10.14 129.039 10.4933 129.439 10.96C129.852 11.4133 130.172 11.9733 130.399 12.64C130.639 13.2933 130.759 14.0333 130.759 14.86C130.759 15.6867 130.639 16.4333 130.399 17.1C130.172 17.7533 129.852 18.3133 129.439 18.78C129.039 19.2467 128.552 19.6067 127.979 19.86C127.419 20.1133 126.799 20.24 126.119 20.24ZM126.119 19.42C126.666 19.42 127.166 19.3133 127.619 19.1C128.072 18.8867 128.459 18.5867 128.779 18.2C129.099 17.8 129.346 17.32 129.519 16.76C129.706 16.2 129.799 15.5667 129.799 14.86C129.799 14.1667 129.706 13.54 129.519 12.98C129.346 12.42 129.099 11.9467 128.779 11.56C128.459 11.16 128.072 10.86 127.619 10.66C127.166 10.4467 126.666 10.34 126.119 10.34C124.999 10.34 124.106 10.74 123.439 11.54C122.772 12.34 122.439 13.4467 122.439 14.86C122.439 15.5667 122.526 16.2 122.699 16.76C122.872 17.32 123.119 17.8 123.439 18.2C123.759 18.5867 124.146 18.8867 124.599 19.1C125.052 19.3133 125.559 19.42 126.119 19.42ZM133.803 20V9.76H137.043C137.603 9.76 138.11 9.81333 138.563 9.92C139.017 10.0133 139.403 10.1733 139.723 10.4C140.043 10.6133 140.29 10.9 140.463 11.26C140.65 11.6067 140.743 12.0333 140.743 12.54C140.743 13.3533 140.497 14 140.003 14.48C139.51 14.96 138.837 15.26 137.983 15.38L140.983 20H139.963L137.003 15.44H134.723V20H133.803ZM134.723 14.72H136.843C138.843 14.72 139.843 14 139.843 12.56C139.843 11.8 139.583 11.2667 139.063 10.96C138.557 10.6533 137.817 10.5 136.843 10.5H134.723V14.72ZM143.803 20V9.76H144.723V20H143.803ZM149.948 14.04L149.268 15.9H153.088L152.408 14.04C152.181 13.4133 151.975 12.84 151.788 12.32C151.601 11.8 151.408 11.24 151.208 10.64H151.128C150.928 11.24 150.735 11.8067 150.548 12.34C150.375 12.86 150.175 13.4267 149.948 14.04ZM146.828 20L150.708 9.76H151.648L155.528 20H154.568L153.348 16.64H148.988L147.748 20H146.828ZM157.631 20V9.76H158.551V19.22H163.591V20H157.631Z" fill="#C4C4C4"/>
<path d="M19.2978 53H16.5978V43.01H5.61781V53H2.91781V31.58H5.61781V40.64H16.5978V31.58H19.2978V53ZM31.0041 36.62C32.3841 36.62 33.5641 36.92 34.5441 37.52C35.5441 38.12 36.3041 38.97 36.8241 40.07C37.3641 41.15 37.6341 42.42 37.6341 43.88V45.47H26.6241C26.6641 47.29 27.1241 48.68 28.0041 49.64C28.9041 50.58 30.1541 51.05 31.7541 51.05C32.7741 51.05 33.6741 50.96 34.4541 50.78C35.2541 50.58 36.0741 50.3 36.9141 49.94V52.25C36.0941 52.61 35.2841 52.87 34.4841 53.03C33.6841 53.21 32.7341 53.3 31.6341 53.3C30.1141 53.3 28.7641 52.99 27.5841 52.37C26.4241 51.75 25.5141 50.83 24.8541 49.61C24.2141 48.37 23.8941 46.86 23.8941 45.08C23.8941 43.32 24.1841 41.81 24.7641 40.55C25.3641 39.29 26.1941 38.32 27.2541 37.64C28.3341 36.96 29.5841 36.62 31.0041 36.62ZM30.9741 38.78C29.7141 38.78 28.7141 39.19 27.9741 40.01C27.2541 40.81 26.8241 41.93 26.6841 43.37H34.8741C34.8541 42.01 34.5341 40.91 33.9141 40.07C33.2941 39.21 32.3141 38.78 30.9741 38.78ZM47.8177 36.65C49.7777 36.65 51.2277 37.08 52.1677 37.94C53.1077 38.8 53.5777 40.17 53.5777 42.05V53H51.6577L51.1477 50.72H51.0277C50.3277 51.6 49.5877 52.25 48.8077 52.67C48.0477 53.09 46.9877 53.3 45.6277 53.3C44.1677 53.3 42.9577 52.92 41.9977 52.16C41.0377 51.38 40.5577 50.17 40.5577 48.53C40.5577 46.93 41.1877 45.7 42.4477 44.84C43.7077 43.96 45.6477 43.48 48.2677 43.4L50.9977 43.31V42.35C50.9977 41.01 50.7077 40.08 50.1277 39.56C49.5477 39.04 48.7277 38.78 47.6677 38.78C46.8277 38.78 46.0277 38.91 45.2677 39.17C44.5077 39.41 43.7977 39.69 43.1377 40.01L42.3277 38.03C43.0277 37.65 43.8577 37.33 44.8177 37.07C45.7777 36.79 46.7777 36.65 47.8177 36.65ZM48.5977 45.23C46.5977 45.31 45.2077 45.63 44.4277 46.19C43.6677 46.75 43.2877 47.54 43.2877 48.56C43.2877 49.46 43.5577 50.12 44.0977 50.54C44.6577 50.96 45.3677 51.17 46.2277 51.17C47.5877 51.17 48.7177 50.8 49.6177 50.06C50.5177 49.3 50.9677 48.14 50.9677 46.58V45.14L48.5977 45.23ZM61.1841 53H58.5441V30.2H61.1841V53ZM71.6485 51.14C72.0485 51.14 72.4585 51.11 72.8785 51.05C73.2985 50.97 73.6385 50.89 73.8985 50.81V52.82C73.6185 52.96 73.2185 53.07 72.6985 53.15C72.1785 53.25 71.6785 53.3 71.1985 53.3C70.3585 53.3 69.5785 53.16 68.8585 52.88C68.1585 52.58 67.5885 52.07 67.1485 51.35C66.7085 50.63 66.4885 49.62 66.4885 48.32V38.96H64.2085V37.7L66.5185 36.65L67.5685 33.23H69.1285V36.92H73.7785V38.96H69.1285V48.26C69.1285 49.24 69.3585 49.97 69.8185 50.45C70.2985 50.91 70.9085 51.14 71.6485 51.14ZM79.7584 36.89C79.7584 37.69 79.7084 38.44 79.6084 39.14H79.7884C80.3084 38.32 81.0084 37.7 81.8884 37.28C82.7884 36.86 83.7584 36.65 84.7984 36.65C86.7584 36.65 88.2284 37.12 89.2084 38.06C90.1884 38.98 90.6784 40.47 90.6784 42.53V53H88.0684V42.71C88.0684 40.13 86.8684 38.84 84.4684 38.84C82.6684 38.84 81.4284 39.35 80.7484 40.37C80.0884 41.37 79.7584 42.81 79.7584 44.69V53H77.1184V30.2H79.7584V36.89ZM109.534 45.6318L106.37 48.8398L109.329 51.8135L108.143 53L105.301 50.1582C103.846 52.0527 102.215 53 100.408 53C98.0156 53 96.8193 52.0527 96.8193 50.1582C96.8193 49.0938 97.1611 48.1221 97.8447 47.2432C98.1865 46.8037 98.958 46.0615 100.159 45.0166L98.5332 43.3906C97.9961 42.7266 97.7275 42.043 97.7275 41.3398C97.7275 40.1973 98.0156 39.2988 98.5918 38.6445C99.1973 37.9512 100.062 37.6045 101.185 37.6045C102.181 37.6045 103.04 37.8682 103.763 38.3955C104.563 38.9912 104.964 39.7676 104.964 40.7246C104.964 41.5449 104.744 42.3799 104.305 43.2295C103.846 44.1377 103.27 44.7627 102.576 45.1045L105.125 47.6973L108.348 44.4453L109.534 45.6318ZM103.162 41.1934C103.162 39.9238 102.527 39.2891 101.258 39.2891C100.77 39.2891 100.35 39.46 99.998 39.8018C99.6562 40.1436 99.4854 40.5586 99.4854 41.0469C99.4854 41.6035 99.7002 42.1553 100.13 42.7021C100.198 42.79 100.618 43.2344 101.39 44.0352C101.565 44.0254 101.878 43.7617 102.327 43.2441C102.884 42.5996 103.162 41.916 103.162 41.1934ZM103.982 48.9277L101.302 46.2471C101.058 46.2666 100.53 46.7646 99.7197 47.7412C98.8799 48.7568 98.46 49.4648 98.46 49.8652C98.46 50.9199 99.0312 51.4473 100.174 51.4473C100.926 51.4473 101.81 51.0029 102.825 50.1143C103.226 49.7627 103.611 49.3672 103.982 48.9277ZM116.033 53V31.58H118.733V50.6H128.093V53H116.033ZM132.755 30.89C133.155 30.89 133.505 31.03 133.805 31.31C134.125 31.57 134.285 31.99 134.285 32.57C134.285 33.13 134.125 33.55 133.805 33.83C133.505 34.11 133.155 34.25 132.755 34.25C132.315 34.25 131.945 34.11 131.645 33.83C131.345 33.55 131.195 33.13 131.195 32.57C131.195 31.99 131.345 31.57 131.645 31.31C131.945 31.03 132.315 30.89 132.755 30.89ZM134.045 36.92V53H131.405V36.92H134.045ZM146.55 38.96H142.5V53H139.86V38.96H137.04V37.73L139.86 36.83V35.9C139.86 33.82 140.32 32.33 141.24 31.43C142.16 30.51 143.44 30.05 145.08 30.05C145.72 30.05 146.3 30.11 146.82 30.23C147.36 30.33 147.82 30.45 148.2 30.59L147.51 32.66C147.19 32.56 146.82 32.46 146.4 32.36C145.98 32.26 145.55 32.21 145.11 32.21C144.23 32.21 143.57 32.51 143.13 33.11C142.71 33.69 142.5 34.61 142.5 35.87V36.92H146.55V38.96ZM155.662 36.62C157.042 36.62 158.222 36.92 159.202 37.52C160.202 38.12 160.962 38.97 161.482 40.07C162.022 41.15 162.292 42.42 162.292 43.88V45.47H151.282C151.322 47.29 151.782 48.68 152.662 49.64C153.562 50.58 154.812 51.05 156.412 51.05C157.432 51.05 158.332 50.96 159.112 50.78C159.912 50.58 160.732 50.3 161.572 49.94V52.25C160.752 52.61 159.942 52.87 159.142 53.03C158.342 53.21 157.392 53.3 156.292 53.3C154.772 53.3 153.422 52.99 152.242 52.37C151.082 51.75 150.172 50.83 149.512 49.61C148.872 48.37 148.552 46.86 148.552 45.08C148.552 43.32 148.842 41.81 149.422 40.55C150.022 39.29 150.852 38.32 151.912 37.64C152.992 36.96 154.242 36.62 155.662 36.62ZM155.632 38.78C154.372 38.78 153.372 39.19 152.632 40.01C151.912 40.81 151.482 41.93 151.342 43.37H159.532C159.512 42.01 159.192 40.91 158.572 40.07C157.952 39.21 156.972 38.78 155.632 38.78ZM176.856 48.56C176.856 50.12 176.276 51.3 175.116 52.1C173.956 52.9 172.396 53.3 170.436 53.3C169.316 53.3 168.346 53.21 167.526 53.03C166.726 52.85 166.016 52.6 165.396 52.28V49.88C166.036 50.2 166.806 50.5 167.706 50.78C168.626 51.04 169.556 51.17 170.496 51.17C171.836 51.17 172.806 50.96 173.406 50.54C174.006 50.1 174.306 49.52 174.306 48.8C174.306 48.4 174.196 48.04 173.976 47.72C173.756 47.4 173.356 47.08 172.776 46.76C172.216 46.44 171.406 46.08 170.346 45.68C169.306 45.28 168.416 44.88 167.676 44.48C166.936 44.08 166.366 43.6 165.966 43.04C165.566 42.48 165.366 41.76 165.366 40.88C165.366 39.52 165.916 38.47 167.016 37.73C168.136 36.99 169.596 36.62 171.396 36.62C172.376 36.62 173.286 36.72 174.126 36.92C174.986 37.1 175.786 37.36 176.526 37.7L175.626 39.8C174.946 39.52 174.236 39.28 173.496 39.08C172.756 38.88 171.996 38.78 171.216 38.78C170.136 38.78 169.306 38.96 168.726 39.32C168.166 39.66 167.886 40.13 167.886 40.73C167.886 41.17 168.016 41.55 168.276 41.87C168.536 42.17 168.966 42.47 169.566 42.77C170.186 43.05 171.006 43.39 172.026 43.79C173.046 44.17 173.916 44.56 174.636 44.96C175.356 45.36 175.906 45.85 176.286 46.43C176.666 46.99 176.856 47.7 176.856 48.56ZM186.111 51.14C186.511 51.14 186.921 51.11 187.341 51.05C187.761 50.97 188.101 50.89 188.361 50.81V52.82C188.081 52.96 187.681 53.07 187.161 53.15C186.641 53.25 186.141 53.3 185.661 53.3C184.821 53.3 184.041 53.16 183.321 52.88C182.621 52.58 182.051 52.07 181.611 51.35C181.171 50.63 180.951 49.62 180.951 48.32V38.96H178.671V37.7L180.981 36.65L182.031 33.23H183.591V36.92H188.241V38.96H183.591V48.26C183.591 49.24 183.821 49.97 184.281 50.45C184.761 50.91 185.371 51.14 186.111 51.14ZM189.061 36.92H191.881L195.361 46.07C195.661 46.87 195.931 47.64 196.171 48.38C196.411 49.1 196.591 49.79 196.711 50.45H196.831C196.951 49.95 197.141 49.3 197.401 48.5C197.661 47.68 197.931 46.86 198.211 46.04L201.481 36.92H204.331L197.401 55.22C196.841 56.74 196.111 57.95 195.211 58.85C194.331 59.75 193.111 60.2 191.551 60.2C191.071 60.2 190.651 60.17 190.291 60.11C189.931 60.07 189.621 60.02 189.361 59.96V57.86C189.581 57.9 189.841 57.94 190.141 57.98C190.461 58.02 190.791 58.04 191.131 58.04C192.051 58.04 192.791 57.78 193.351 57.26C193.931 56.74 194.381 56.05 194.701 55.19L195.541 53.06L189.061 36.92ZM209.514 53H206.874V30.2H209.514V53ZM220.819 36.62C222.199 36.62 223.379 36.92 224.359 37.52C225.359 38.12 226.119 38.97 226.639 40.07C227.179 41.15 227.449 42.42 227.449 43.88V45.47H216.439C216.479 47.29 216.939 48.68 217.819 49.64C218.719 50.58 219.969 51.05 221.569 51.05C222.589 51.05 223.489 50.96 224.269 50.78C225.069 50.58 225.889 50.3 226.729 49.94V52.25C225.909 52.61 225.099 52.87 224.299 53.03C223.499 53.21 222.549 53.3 221.449 53.3C219.929 53.3 218.579 52.99 217.399 52.37C216.239 51.75 215.329 50.83 214.669 49.61C214.029 48.37 213.709 46.86 213.709 45.08C213.709 43.32 213.999 41.81 214.579 40.55C215.179 39.29 216.009 38.32 217.069 37.64C218.149 36.96 219.399 36.62 220.819 36.62ZM220.789 38.78C219.529 38.78 218.529 39.19 217.789 40.01C217.069 40.81 216.639 41.93 216.499 43.37H224.689C224.669 42.01 224.349 40.91 223.729 40.07C223.109 39.21 222.129 38.78 220.789 38.78Z" fill="#4269AE"/>
<path d="M19.2978 53V53.25H19.5478V53H19.2978ZM16.5978 53H16.3478V53.25H16.5978V53ZM16.5978 43.01H16.8478V42.76H16.5978V43.01ZM5.61781 43.01V42.76H5.36781V43.01H5.61781ZM5.61781 53V53.25H5.86781V53H5.61781ZM2.91781 53H2.66781V53.25H2.91781V53ZM2.91781 31.58V31.33H2.66781V31.58H2.91781ZM5.61781 31.58H5.86781V31.33H5.61781V31.58ZM5.61781 40.64H5.36781V40.89H5.61781V40.64ZM16.5978 40.64V40.89H16.8478V40.64H16.5978ZM16.5978 31.58V31.33H16.3478V31.58H16.5978ZM19.2978 31.58H19.5478V31.33H19.2978V31.58ZM19.2978 52.75H16.5978V53.25H19.2978V52.75ZM16.8478 53V43.01H16.3478V53H16.8478ZM16.5978 42.76H5.61781V43.26H16.5978V42.76ZM5.36781 43.01V53H5.86781V43.01H5.36781ZM5.61781 52.75H2.91781V53.25H5.61781V52.75ZM3.16781 53V31.58H2.66781V53H3.16781ZM2.91781 31.83H5.61781V31.33H2.91781V31.83ZM5.36781 31.58V40.64H5.86781V31.58H5.36781ZM5.61781 40.89H16.5978V40.39H5.61781V40.89ZM16.8478 40.64V31.58H16.3478V40.64H16.8478ZM16.5978 31.83H19.2978V31.33H16.5978V31.83ZM19.0478 31.58V53H19.5478V31.58H19.0478ZM34.5441 37.52L34.4136 37.7332L34.4155 37.7344L34.5441 37.52ZM36.8241 40.07L36.5981 40.1769L36.6005 40.1818L36.8241 40.07ZM37.6341 45.47V45.72H37.8841V45.47H37.6341ZM26.6241 45.47V45.22H26.3686L26.3742 45.4755L26.6241 45.47ZM28.0041 49.64L27.8198 49.809L27.8236 49.8129L28.0041 49.64ZM34.4541 50.78L34.5104 51.0236L34.5148 51.0225L34.4541 50.78ZM36.9141 49.94H37.1641V49.5609L36.8157 49.7102L36.9141 49.94ZM36.9141 52.25L37.0146 52.4789L37.1641 52.4133V52.25H36.9141ZM34.4841 53.03L34.4351 52.7848L34.4293 52.7861L34.4841 53.03ZM27.5841 52.37L27.4663 52.5905L27.4679 52.5913L27.5841 52.37ZM24.8541 49.61L24.6319 49.7247L24.6343 49.729L24.8541 49.61ZM24.7641 40.55L24.5384 40.4425L24.537 40.4455L24.7641 40.55ZM27.2541 37.64L27.1209 37.4284L27.1192 37.4296L27.2541 37.64ZM27.9741 40.01L27.7885 39.8425L27.7883 39.8428L27.9741 40.01ZM26.6841 43.37L26.4353 43.3458L26.4087 43.62H26.6841V43.37ZM34.8741 43.37V43.62H35.1278L35.1241 43.3663L34.8741 43.37ZM33.9141 40.07L33.7113 40.2162L33.713 40.2185L33.9141 40.07ZM31.0041 36.87C32.3474 36.87 33.4801 37.1617 34.4136 37.7332L34.6747 37.3068C33.6481 36.6783 32.4209 36.37 31.0041 36.37V36.87ZM34.4155 37.7344C35.3712 38.3078 36.0983 39.1195 36.5981 40.1768L37.0502 39.9632C36.51 38.8205 35.717 37.9322 34.6728 37.3056L34.4155 37.7344ZM36.6005 40.1818C37.1199 41.2206 37.3841 42.4508 37.3841 43.88H37.8841C37.8841 42.3892 37.6084 41.0794 37.0477 39.9582L36.6005 40.1818ZM37.3841 43.88V45.47H37.8841V43.88H37.3841ZM37.6341 45.22H26.6241V45.72H37.6341V45.22ZM26.3742 45.4755C26.415 47.3321 26.8851 48.7892 27.8199 49.8089L28.1884 49.4711C27.3632 48.5708 26.9133 47.2479 26.8741 45.4645L26.3742 45.4755ZM27.8236 49.8129C28.7812 50.813 30.1027 51.3 31.7541 51.3V50.8C30.2056 50.8 29.0271 50.347 28.1847 49.4671L27.8236 49.8129ZM31.7541 51.3C32.7882 51.3 33.7077 51.2088 34.5104 51.0236L34.3979 50.5364C33.6406 50.7112 32.7601 50.8 31.7541 50.8V51.3ZM34.5148 51.0225C35.329 50.819 36.1617 50.5345 37.0126 50.1698L36.8157 49.7102C35.9866 50.0655 35.1793 50.341 34.3935 50.5375L34.5148 51.0225ZM36.6641 49.94V52.25H37.1641V49.94H36.6641ZM36.8136 52.0211C36.0086 52.3745 35.2158 52.6287 34.4351 52.7849L34.5332 53.2751C35.3525 53.1113 36.1797 52.8455 37.0146 52.4789L36.8136 52.0211ZM34.4293 52.7861C33.6522 52.9609 32.7215 53.05 31.6341 53.05V53.55C32.7468 53.55 33.7161 53.4591 34.539 53.2739L34.4293 52.7861ZM31.6341 53.05C30.1489 53.05 28.8398 52.7473 27.7004 52.1487L27.4679 52.5913C28.6885 53.2327 30.0794 53.55 31.6341 53.55V53.05ZM27.702 52.1495C26.5876 51.5539 25.712 50.6704 25.074 49.491L24.6343 49.729C25.3162 50.9896 26.2606 51.9461 27.4663 52.5905L27.702 52.1495ZM25.0763 49.4953C24.4589 48.2992 24.1441 46.8308 24.1441 45.08H23.6441C23.6441 46.8892 23.9693 48.4408 24.632 49.7247L25.0763 49.4953ZM24.1441 45.08C24.1441 43.3467 24.4298 41.8742 24.9912 40.6545L24.537 40.4455C23.9385 41.7458 23.6441 43.2933 23.6441 45.08H24.1441ZM24.9899 40.6575C25.572 39.4349 26.3725 38.5026 27.3891 37.8504L27.1192 37.4296C26.0157 38.1374 25.1562 39.1451 24.5384 40.4425L24.9899 40.6575ZM27.3873 37.8516C28.4231 37.1994 29.6258 36.87 31.0041 36.87V36.37C29.5425 36.37 28.2452 36.7206 27.1209 37.4284L27.3873 37.8516ZM30.9741 38.53C29.6544 38.53 28.5829 38.9623 27.7885 39.8425L28.1597 40.1775C28.8454 39.4177 29.7739 39.03 30.9741 39.03V38.53ZM27.7883 39.8428C27.0221 40.6941 26.5787 41.8707 26.4353 43.3458L26.933 43.3942C27.0696 41.9893 27.4862 40.9258 28.16 40.1772L27.7883 39.8428ZM26.6841 43.62H34.8741V43.12H26.6841V43.62ZM35.1241 43.3663C35.1036 41.9699 34.7745 40.8146 34.1153 39.9215L33.713 40.2185C34.2938 41.0054 34.6047 42.0501 34.6242 43.3737L35.1241 43.3663ZM34.1169 39.9238C33.4377 38.9816 32.3709 38.53 30.9741 38.53V39.03C32.2574 39.03 33.1506 39.4384 33.7113 40.2162L34.1169 39.9238ZM52.1677 37.94L52.3365 37.7555L52.1677 37.94ZM53.5777 53V53.25H53.8277V53H53.5777ZM51.6577 53L51.4138 53.0546L51.4575 53.25H51.6577V53ZM51.1477 50.72L51.3917 50.6654L51.348 50.47H51.1477V50.72ZM51.0277 50.72V50.47H50.9072L50.8321 50.5644L51.0277 50.72ZM48.8077 52.67L48.6892 52.4499L48.6868 52.4512L48.8077 52.67ZM41.9977 52.16L41.8401 52.354L41.8426 52.356L41.9977 52.16ZM42.4477 44.84L42.5887 45.0465L42.5909 45.045L42.4477 44.84ZM48.2677 43.4L48.2754 43.6499L48.276 43.6499L48.2677 43.4ZM50.9977 43.31L51.006 43.5599L51.2477 43.5519V43.31H50.9977ZM50.1277 39.56L49.9608 39.7461V39.7461L50.1277 39.56ZM45.2677 39.17L45.343 39.4085L45.3487 39.4065L45.2677 39.17ZM43.1377 40.01L42.9063 40.1047L43.0072 40.3511L43.2468 40.235L43.1377 40.01ZM42.3277 38.03L42.2085 37.8103L42.0115 37.9172L42.0963 38.1247L42.3277 38.03ZM44.8177 37.07L44.8831 37.3114L44.8877 37.31L44.8177 37.07ZM48.5977 45.23L48.5882 44.9802L48.5877 44.9802L48.5977 45.23ZM44.4277 46.19L44.2819 45.9869L44.2794 45.9887L44.4277 46.19ZM44.0977 50.54L43.9442 50.7374L43.9477 50.74L44.0977 50.54ZM49.6177 50.06L49.7765 50.2531L49.779 50.251L49.6177 50.06ZM50.9677 45.14H51.2177V44.8803L50.9582 44.8902L50.9677 45.14ZM47.8177 36.9C49.7477 36.9 51.1244 37.3243 51.999 38.1245L52.3365 37.7555C51.331 36.8357 49.8077 36.4 47.8177 36.4V36.9ZM51.999 38.1245C52.8667 38.9183 53.3277 40.2065 53.3277 42.05H53.8277C53.8277 40.1335 53.3487 38.6817 52.3365 37.7555L51.999 38.1245ZM53.3277 42.05V53H53.8277V42.05H53.3277ZM53.5777 52.75H51.6577V53.25H53.5777V52.75ZM51.9017 52.9454L51.3917 50.6654L50.9038 50.7746L51.4138 53.0546L51.9017 52.9454ZM51.1477 50.47H51.0277V50.97H51.1477V50.47ZM50.8321 50.5644C50.1477 51.4247 49.4325 52.0496 48.6892 52.4499L48.9263 52.8901C49.7429 52.4504 50.5078 51.7753 51.2234 50.8756L50.8321 50.5644ZM48.6868 52.4512C47.9791 52.8423 46.9672 53.05 45.6277 53.05V53.55C47.0083 53.55 48.1164 53.3377 48.9287 52.8888L48.6868 52.4512ZM45.6277 53.05C44.2128 53.05 43.0607 52.6826 42.1529 51.964L41.8426 52.356C42.8548 53.1574 44.1226 53.55 45.6277 53.55V53.05ZM42.1554 51.966C41.2715 51.2478 40.8077 50.121 40.8077 48.53H40.3077C40.3077 50.219 40.8039 51.5121 41.8401 52.354L42.1554 51.966ZM40.8077 48.53C40.8077 47.0078 41.4008 45.8573 42.5887 45.0465L42.3068 44.6335C40.9747 45.5427 40.3077 46.8522 40.3077 48.53H40.8077ZM42.5909 45.045C43.7918 44.2062 45.6735 43.7293 48.2754 43.6499L48.2601 43.1501C45.622 43.2307 43.6236 43.7138 42.3046 44.635L42.5909 45.045ZM48.276 43.6499L51.006 43.5599L50.9895 43.0601L48.2595 43.1501L48.276 43.6499ZM51.2477 43.31V42.35H50.7477V43.31H51.2477ZM51.2477 42.35C51.2477 40.9875 50.9552 39.9661 50.2946 39.3739L49.9608 39.7461C50.4603 40.1939 50.7477 41.0325 50.7477 42.35H51.2477ZM50.2946 39.3739C49.6544 38.7999 48.7669 38.53 47.6677 38.53V39.03C48.6886 39.03 49.441 39.2801 49.9608 39.7461L50.2946 39.3739ZM47.6677 38.53C46.8015 38.53 45.974 38.6641 45.1868 38.9335L45.3487 39.4065C46.0814 39.1559 46.854 39.03 47.6677 39.03V38.53ZM45.1925 38.9316C44.4219 39.1749 43.7005 39.4593 43.0287 39.785L43.2468 40.235C43.895 39.9207 44.5936 39.6451 45.343 39.4084L45.1925 38.9316ZM43.3691 39.9153L42.5591 37.9353L42.0963 38.1247L42.9063 40.1047L43.3691 39.9153ZM42.447 38.2497C43.1263 37.8809 43.9374 37.5674 44.8831 37.3113L44.7524 36.8287C43.778 37.0926 42.9291 37.4191 42.2085 37.8103L42.447 38.2497ZM44.8877 37.31C45.8241 37.0369 46.8005 36.9 47.8177 36.9V36.4C46.755 36.4 45.7314 36.5431 44.7477 36.83L44.8877 37.31ZM48.5877 44.9802C46.5817 45.0604 45.1261 45.3808 44.2819 45.9869L44.5735 46.3931C45.2894 45.8792 46.6137 45.5596 48.6077 45.4798L48.5877 44.9802ZM44.2794 45.9887C43.4497 46.6001 43.0377 47.468 43.0377 48.56H43.5377C43.5377 47.612 43.8857 46.8999 44.576 46.3913L44.2794 45.9887ZM43.0377 48.56C43.0377 49.5108 43.3252 50.2559 43.9442 50.7373L44.2512 50.3427C43.7903 49.9841 43.5377 49.4092 43.5377 48.56H43.0377ZM43.9477 50.74C44.5601 51.1993 45.3263 51.42 46.2277 51.42V50.92C45.4092 50.92 44.7553 50.7207 44.2477 50.34L43.9477 50.74ZM46.2277 51.42C47.6355 51.42 48.8245 51.0359 49.7765 50.2531L49.459 49.8669C48.611 50.5641 47.54 50.92 46.2277 50.92V51.42ZM49.779 50.251C50.7522 49.4292 51.2177 48.1882 51.2177 46.58H50.7177C50.7177 48.0918 50.2833 49.1708 49.4564 49.869L49.779 50.251ZM51.2177 46.58V45.14H50.7177V46.58H51.2177ZM50.9582 44.8902L48.5882 44.9802L48.6072 45.4798L50.9772 45.3898L50.9582 44.8902ZM61.1841 53V53.25H61.4341V53H61.1841ZM58.5441 53H58.2941V53.25H58.5441V53ZM58.5441 30.2V29.95H58.2941V30.2H58.5441ZM61.1841 30.2H61.4341V29.95H61.1841V30.2ZM61.1841 52.75H58.5441V53.25H61.1841V52.75ZM58.7941 53V30.2H58.2941V53H58.7941ZM58.5441 30.45H61.1841V29.95H58.5441V30.45ZM60.9341 30.2V53H61.4341V30.2H60.9341ZM72.8785 51.05L72.9139 51.2978L72.9253 51.2956L72.8785 51.05ZM73.8985 50.81H74.1485V50.4715L73.825 50.5711L73.8985 50.81ZM73.8985 52.82L74.0103 53.0436L74.1485 52.9745V52.82H73.8985ZM72.6985 53.15L72.6605 52.9027L72.6513 52.9045L72.6985 53.15ZM68.8585 52.88L68.76 53.1099L68.7679 53.113L68.8585 52.88ZM67.1485 51.35L66.9352 51.4804L67.1485 51.35ZM66.4885 38.96H66.7385V38.71H66.4885V38.96ZM64.2085 38.96H63.9585V39.21H64.2085V38.96ZM64.2085 37.7L64.1051 37.4724L63.9585 37.539V37.7H64.2085ZM66.5185 36.65L66.622 36.8776L66.7245 36.831L66.7575 36.7234L66.5185 36.65ZM67.5685 33.23V32.98H67.3838L67.3295 33.1566L67.5685 33.23ZM69.1285 33.23H69.3785V32.98H69.1285V33.23ZM69.1285 36.92H68.8785V37.17H69.1285V36.92ZM73.7785 36.92H74.0285V36.67H73.7785V36.92ZM73.7785 38.96V39.21H74.0285V38.96H73.7785ZM69.1285 38.96V38.71H68.8785V38.96H69.1285ZM69.8185 50.45L69.6379 50.6231L69.6455 50.6305L69.8185 50.45ZM71.6485 51.39C72.061 51.39 72.4829 51.3591 72.9139 51.2975L72.8432 50.8025C72.4342 50.8609 72.036 50.89 71.6485 50.89V51.39ZM72.9253 51.2956C73.3499 51.2147 73.6998 51.1327 73.972 51.0489L73.825 50.5711C73.5773 50.6473 73.2472 50.7253 72.8317 50.8044L72.9253 51.2956ZM73.6485 50.81V52.82H74.1485V50.81H73.6485ZM73.7867 52.5964C73.5404 52.7195 73.1698 52.8246 72.6605 52.9029L72.7365 53.3971C73.2673 53.3154 73.6966 53.2005 74.0103 53.0436L73.7867 52.5964ZM72.6513 52.9045C72.1453 53.0018 71.6611 53.05 71.1985 53.05V53.55C71.6959 53.55 72.2117 53.4982 72.7457 53.3955L72.6513 52.9045ZM71.1985 53.05C70.3868 53.05 69.6378 52.9148 68.9491 52.647L68.7679 53.113C69.5192 53.4052 70.3302 53.55 71.1985 53.55V53.05ZM68.957 52.6502C68.3098 52.3728 67.7778 51.9004 67.3618 51.2196L66.9352 51.4804C67.3992 52.2396 68.0073 52.7872 68.76 53.1098L68.957 52.6502ZM67.3618 51.2196C66.9555 50.5547 66.7385 49.5969 66.7385 48.32H66.2385C66.2385 49.6431 66.4616 50.7053 66.9352 51.4804L67.3618 51.2196ZM66.7385 48.32V38.96H66.2385V48.32H66.7385ZM66.4885 38.71H64.2085V39.21H66.4885V38.71ZM64.4585 38.96V37.7H63.9585V38.96H64.4585ZM64.312 37.9276L66.622 36.8776L66.4151 36.4224L64.1051 37.4724L64.312 37.9276ZM66.7575 36.7234L67.8075 33.3034L67.3295 33.1566L66.2795 36.5766L66.7575 36.7234ZM67.5685 33.48H69.1285V32.98H67.5685V33.48ZM68.8785 33.23V36.92H69.3785V33.23H68.8785ZM69.1285 37.17H73.7785V36.67H69.1285V37.17ZM73.5285 36.92V38.96H74.0285V36.92H73.5285ZM73.7785 38.71H69.1285V39.21H73.7785V38.71ZM68.8785 38.96V48.26H69.3785V38.96H68.8785ZM68.8785 48.26C68.8785 49.2742 69.1162 50.0784 69.638 50.623L69.999 50.277C69.6009 49.8616 69.3785 49.2058 69.3785 48.26H68.8785ZM69.6455 50.6305C70.1775 51.1403 70.852 51.39 71.6485 51.39V50.89C70.965 50.89 70.4195 50.6797 69.9915 50.2695L69.6455 50.6305ZM79.6084 39.14L79.3609 39.1046L79.3201 39.39H79.6084V39.14ZM79.7884 39.14V39.39H79.9258L79.9995 39.2739L79.7884 39.14ZM81.8884 37.28L81.7826 37.0534L81.7807 37.0544L81.8884 37.28ZM89.2084 38.06L89.0353 38.2404L89.0373 38.2423L89.2084 38.06ZM90.6784 53V53.25H90.9284V53H90.6784ZM88.0684 53H87.8184V53.25H88.0684V53ZM80.7484 40.37L80.5403 40.2313L80.5397 40.2323L80.7484 40.37ZM79.7584 53V53.25H80.0084V53H79.7584ZM77.1184 53H76.8684V53.25H77.1184V53ZM77.1184 30.2V29.95H76.8684V30.2H77.1184ZM79.7584 30.2H80.0084V29.95H79.7584V30.2ZM79.5084 36.89C79.5084 37.6797 79.459 38.4178 79.3609 39.1046L79.8559 39.1754C79.9577 38.4622 80.0084 37.7003 80.0084 36.89H79.5084ZM79.6084 39.39H79.7884V38.89H79.6084V39.39ZM79.9995 39.2739C80.4942 38.4938 81.1583 37.9055 81.996 37.5056L81.7807 37.0544C80.8584 37.4945 80.1225 38.1462 79.5772 39.0061L79.9995 39.2739ZM81.9941 37.5065C82.8594 37.1027 83.7931 36.9 84.7984 36.9V36.4C83.7236 36.4 82.7173 36.6173 81.7826 37.0535L81.9941 37.5065ZM84.7984 36.9C86.7224 36.9 88.119 37.3615 89.0353 38.2404L89.3814 37.8796C88.3377 36.8785 86.7943 36.4 84.7984 36.4V36.9ZM89.0373 38.2423C89.9454 39.0948 90.4284 40.5027 90.4284 42.53H90.9284C90.9284 40.4373 90.4313 38.8652 89.3795 37.8777L89.0373 38.2423ZM90.4284 42.53V53H90.9284V42.53H90.4284ZM90.6784 52.75H88.0684V53.25H90.6784V52.75ZM88.3184 53V42.71H87.8184V53H88.3184ZM88.3184 42.71C88.3184 41.3858 88.0108 40.346 87.3514 39.6372C86.6889 38.925 85.7117 38.59 84.4684 38.59V39.09C85.625 39.09 86.4478 39.4 86.9853 39.9778C87.5259 40.559 87.8184 41.4542 87.8184 42.71H88.3184ZM84.4684 38.59C82.6266 38.59 81.2859 39.113 80.5403 40.2313L80.9564 40.5087C81.5708 39.587 82.7101 39.09 84.4684 39.09V38.59ZM80.5397 40.2323C79.8414 41.2903 79.5084 42.7867 79.5084 44.69H80.0084C80.0084 42.8333 80.3353 41.4497 80.957 40.5077L80.5397 40.2323ZM79.5084 44.69V53H80.0084V44.69H79.5084ZM79.7584 52.75H77.1184V53.25H79.7584V52.75ZM77.3684 53V30.2H76.8684V53H77.3684ZM77.1184 30.45H79.7584V29.95H77.1184V30.45ZM79.5084 30.2V36.89H80.0084V30.2H79.5084ZM109.534 45.6318L109.712 45.8074L109.887 45.6306L109.711 45.4551L109.534 45.6318ZM106.37 48.8398L106.192 48.6643L106.018 48.8406L106.193 49.0162L106.37 48.8398ZM109.329 51.8135L109.506 51.9903L109.682 51.8139L109.506 51.6371L109.329 51.8135ZM108.143 53L107.966 53.1768L108.143 53.3536L108.319 53.1768L108.143 53ZM105.301 50.1582L105.478 49.9814L105.276 49.7799L105.103 50.0059L105.301 50.1582ZM100.159 45.0166L100.323 45.2052L100.525 45.0293L100.336 44.8398L100.159 45.0166ZM98.5332 43.3906L98.3388 43.5478L98.3471 43.5581L98.3564 43.5674L98.5332 43.3906ZM98.5918 38.6445L98.7794 38.8098L98.7801 38.809L98.5918 38.6445ZM103.763 38.3955L103.912 38.1949L103.91 38.1936L103.763 38.3955ZM104.305 43.2295L104.083 43.1146L104.082 43.1167L104.305 43.2295ZM102.576 45.1045L102.466 44.8803L102.155 45.0332L102.398 45.2798L102.576 45.1045ZM105.125 47.6973L104.947 47.8725L105.124 48.0532L105.303 47.8732L105.125 47.6973ZM108.348 44.4453L108.524 44.2685L108.347 44.091L108.17 44.2693L108.348 44.4453ZM99.998 39.8018L99.8238 39.6225L99.8213 39.625L99.998 39.8018ZM100.13 42.7021L100.327 42.5487L100.326 42.5477L100.13 42.7021ZM101.39 44.0352L101.21 44.2086L101.289 44.2911L101.404 44.2848L101.39 44.0352ZM102.327 43.2441L102.516 43.408L102.516 43.4075L102.327 43.2441ZM103.982 48.9277L104.173 49.089L104.322 48.9135L104.159 48.751L103.982 48.9277ZM101.302 46.2471L101.479 46.0703L101.397 45.9887L101.282 45.9979L101.302 46.2471ZM99.7197 47.7412L99.5274 47.5815L99.5271 47.5819L99.7197 47.7412ZM102.825 50.1143L102.99 50.3024L102.99 50.3021L102.825 50.1143ZM109.356 45.4563L106.192 48.6643L106.548 49.0154L109.712 45.8074L109.356 45.4563ZM106.193 49.0162L109.152 51.9898L109.506 51.6371L106.547 48.6635L106.193 49.0162ZM109.152 51.6367L107.966 52.8232L108.319 53.1768L109.506 51.9903L109.152 51.6367ZM108.319 52.8232L105.478 49.9814L105.124 50.335L107.966 53.1768L108.319 52.8232ZM105.103 50.0059C103.678 51.8603 102.114 52.75 100.408 52.75V53.25C102.316 53.25 104.013 52.2451 105.499 50.3105L105.103 50.0059ZM100.408 52.75C99.2382 52.75 98.4068 52.5173 97.8717 52.0936C97.3478 51.6787 97.0693 51.0494 97.0693 50.1582H96.5693C96.5693 51.1615 96.889 51.9532 97.5614 52.4855C98.2226 53.0091 99.1856 53.25 100.408 53.25V52.75ZM97.0693 50.1582C97.0693 49.152 97.3909 48.2338 98.0421 47.3966L97.6474 47.0897C96.9314 48.0103 96.5693 49.0355 96.5693 50.1582H97.0693ZM98.0421 47.3966C98.3666 46.9793 99.1196 46.2523 100.323 45.2052L99.9951 44.828C98.7964 45.8708 98.0064 46.6281 97.6474 47.0897L98.0421 47.3966ZM100.336 44.8398L98.71 43.2138L98.3564 43.5674L99.9824 45.1934L100.336 44.8398ZM98.7276 43.2334C98.2185 42.604 97.9775 41.9742 97.9775 41.3398H97.4775C97.4775 42.1117 97.7737 42.8492 98.3388 43.5478L98.7276 43.2334ZM97.9775 41.3398C97.9775 40.2388 98.2546 39.4058 98.7794 38.8098L98.4042 38.4793C97.7767 39.1919 97.4775 40.1557 97.4775 41.3398H97.9775ZM98.7801 38.809C99.3278 38.1818 100.116 37.8545 101.185 37.8545V37.3545C100.007 37.3545 99.0667 37.7206 98.4035 38.4801L98.7801 38.809ZM101.185 37.8545C102.134 37.8545 102.94 38.1049 103.615 38.5975L103.91 38.1936C103.14 37.6315 102.227 37.3545 101.185 37.3545V37.8545ZM103.613 38.5961C104.354 39.147 104.714 39.8505 104.714 40.7246H105.214C105.214 39.6847 104.773 38.8354 103.912 38.1949L103.613 38.5961ZM104.714 40.7246C104.714 41.4988 104.507 42.2946 104.083 43.1146L104.527 43.3443C104.982 42.4651 105.214 41.591 105.214 40.7246H104.714ZM104.082 43.1167C103.639 43.9918 103.097 44.569 102.466 44.8803L102.687 45.3287C103.442 44.9564 104.052 44.2836 104.528 43.3423L104.082 43.1167ZM102.398 45.2798L104.947 47.8725L105.303 47.522L102.754 44.9292L102.398 45.2798ZM105.303 47.8732L108.525 44.6213L108.17 44.2693L104.947 47.5213L105.303 47.8732ZM108.171 44.6221L109.357 45.8086L109.711 45.4551L108.524 44.2685L108.171 44.6221ZM103.412 41.1934C103.412 40.5201 103.244 39.9692 102.863 39.5884C102.482 39.2076 101.931 39.0391 101.258 39.0391V39.5391C101.854 39.5391 102.255 39.688 102.509 39.9419C102.763 40.1959 102.912 40.5971 102.912 41.1934H103.412ZM101.258 39.0391C100.704 39.0391 100.222 39.2356 99.8238 39.6225L100.172 39.981C100.477 39.6844 100.835 39.5391 101.258 39.5391V39.0391ZM99.8213 39.625C99.4321 40.0142 99.2354 40.493 99.2354 41.0469H99.7354C99.7354 40.6241 99.8804 40.2729 100.175 39.9785L99.8213 39.625ZM99.2354 41.0469C99.2354 41.6723 99.4778 42.2769 99.9333 42.8566L100.326 42.5477C99.9226 42.0336 99.7354 41.5347 99.7354 41.0469H99.2354ZM99.9325 42.8556C99.9761 42.9116 100.109 43.0559 100.314 43.273C100.525 43.4961 100.824 43.808 101.21 44.2086L101.57 43.8617C101.184 43.4615 100.887 43.1509 100.678 42.9296C100.463 42.7024 100.352 42.5806 100.327 42.5487L99.9325 42.8556ZM101.404 44.2848C101.501 44.2793 101.593 44.2413 101.669 44.1984C101.749 44.1538 101.832 44.0931 101.917 44.0212C102.088 43.8773 102.288 43.671 102.516 43.408L102.138 43.0803C101.917 43.3349 101.737 43.5192 101.595 43.639C101.524 43.6989 101.467 43.7383 101.425 43.7621C101.38 43.7875 101.366 43.7861 101.376 43.7855L101.404 44.2848ZM102.516 43.4075C103.105 42.7261 103.412 41.9864 103.412 41.1934H102.912C102.912 41.8456 102.663 42.4731 102.138 43.0807L102.516 43.4075ZM104.159 48.751L101.479 46.0703L101.125 46.4238L103.806 49.1045L104.159 48.751ZM101.282 45.9979C101.155 46.008 101.032 46.0731 100.926 46.1438C100.814 46.2193 100.688 46.3241 100.551 46.4535C100.277 46.7127 99.9351 47.0903 99.5274 47.5815L99.9121 47.9009C100.315 47.4155 100.642 47.0558 100.895 46.817C101.021 46.6973 101.124 46.613 101.205 46.559C101.292 46.5003 101.327 46.4959 101.322 46.4963L101.282 45.9979ZM99.5271 47.5819C99.1032 48.0945 98.7792 48.5367 98.5599 48.9064C98.3465 49.2661 98.21 49.5932 98.21 49.8652H98.71C98.71 49.7369 98.7834 49.5098 98.9899 49.1615C99.1906 48.8232 99.4965 48.4035 99.9124 47.9005L99.5271 47.5819ZM98.21 49.8652C98.21 50.4365 98.3656 50.9094 98.7189 51.2355C99.0683 51.558 99.5687 51.6973 100.174 51.6973V51.1973C99.6363 51.1973 99.2798 51.0728 99.058 50.8681C98.84 50.6668 98.71 50.3487 98.71 49.8652H98.21ZM100.174 51.6973C101.019 51.6973 101.961 51.2025 102.99 50.3024L102.661 49.9261C101.658 50.8034 100.833 51.1973 100.174 51.1973V51.6973ZM102.99 50.3021C103.401 49.9417 103.795 49.5372 104.173 49.089L103.791 48.7664C103.428 49.1971 103.051 49.5836 102.66 49.9264L102.99 50.3021ZM116.033 53H115.783V53.25H116.033V53ZM116.033 31.58V31.33H115.783V31.58H116.033ZM118.733 31.58H118.983V31.33H118.733V31.58ZM118.733 50.6H118.483V50.85H118.733V50.6ZM128.093 50.6H128.343V50.35H128.093V50.6ZM128.093 53V53.25H128.343V53H128.093ZM116.283 53V31.58H115.783V53H116.283ZM116.033 31.83H118.733V31.33H116.033V31.83ZM118.483 31.58V50.6H118.983V31.58H118.483ZM118.733 50.85H128.093V50.35H118.733V50.85ZM127.843 50.6V53H128.343V50.6H127.843ZM128.093 52.75H116.033V53.25H128.093V52.75ZM133.805 31.31L133.635 31.4928L133.641 31.4986L133.648 31.504L133.805 31.31ZM133.805 33.83L133.641 33.6418L133.635 33.6472L133.805 33.83ZM131.645 33.83L131.816 33.6472V33.6472L131.645 33.83ZM131.645 31.31L131.809 31.499L131.816 31.4928L131.645 31.31ZM134.045 36.92H134.295V36.67H134.045V36.92ZM134.045 53V53.25H134.295V53H134.045ZM131.405 53H131.155V53.25H131.405V53ZM131.405 36.92V36.67H131.155V36.92H131.405ZM132.755 31.14C133.09 31.14 133.38 31.2547 133.635 31.4928L133.976 31.1272C133.631 30.8053 133.221 30.64 132.755 30.64V31.14ZM133.648 31.504C133.888 31.6995 134.035 32.0332 134.035 32.57H134.535C134.535 31.9468 134.363 31.4405 133.963 31.116L133.648 31.504ZM134.035 32.57C134.035 33.0821 133.891 33.4232 133.641 33.6419L133.97 34.0181C134.36 33.6768 134.535 33.1779 134.535 32.57H134.035ZM133.635 33.6472C133.38 33.8853 133.09 34 132.755 34V34.5C133.221 34.5 133.631 34.3347 133.976 34.0128L133.635 33.6472ZM132.755 34C132.374 34 132.066 33.8807 131.816 33.6472L131.475 34.0128C131.825 34.3393 132.257 34.5 132.755 34.5V34ZM131.816 33.6472C131.583 33.4298 131.445 33.0869 131.445 32.57H130.945C130.945 33.1731 131.108 33.6702 131.475 34.0128L131.816 33.6472ZM131.445 32.57C131.445 32.0284 131.585 31.6929 131.809 31.4989L131.482 31.1211C131.106 31.4471 130.945 31.9516 130.945 32.57H131.445ZM131.816 31.4928C132.066 31.2593 132.374 31.14 132.755 31.14V30.64C132.257 30.64 131.825 30.8007 131.475 31.1272L131.816 31.4928ZM133.795 36.92V53H134.295V36.92H133.795ZM134.045 52.75H131.405V53.25H134.045V52.75ZM131.655 53V36.92H131.155V53H131.655ZM131.405 37.17H134.045V36.67H131.405V37.17ZM146.55 38.96V39.21H146.8V38.96H146.55ZM142.5 38.96V38.71H142.25V38.96H142.5ZM142.5 53V53.25H142.75V53H142.5ZM139.86 53H139.61V53.25H139.86V53ZM139.86 38.96H140.11V38.71H139.86V38.96ZM137.04 38.96H136.79V39.21H137.04V38.96ZM137.04 37.73L136.964 37.4918L136.79 37.5474V37.73H137.04ZM139.86 36.83L139.936 37.0682L140.11 37.0126V36.83H139.86ZM141.24 31.43L141.415 31.6087L141.417 31.6068L141.24 31.43ZM146.82 30.23L146.764 30.4738L146.774 30.4758L146.82 30.23ZM148.2 30.59L148.437 30.6691L148.514 30.4392L148.286 30.3554L148.2 30.59ZM147.51 32.66L147.435 32.8986L147.669 32.9718L147.747 32.7391L147.51 32.66ZM143.13 33.11L142.928 32.9622L142.927 32.9634L143.13 33.11ZM142.5 36.92H142.25V37.17H142.5V36.92ZM146.55 36.92H146.8V36.67H146.55V36.92ZM146.55 38.71H142.5V39.21H146.55V38.71ZM142.25 38.96V53H142.75V38.96H142.25ZM142.5 52.75H139.86V53.25H142.5V52.75ZM140.11 53V38.96H139.61V53H140.11ZM139.86 38.71H137.04V39.21H139.86V38.71ZM137.29 38.96V37.73H136.79V38.96H137.29ZM137.116 37.9682L139.936 37.0682L139.784 36.5918L136.964 37.4918L137.116 37.9682ZM140.11 36.83V35.9H139.61V36.83H140.11ZM140.11 35.9C140.11 33.8474 140.565 32.4397 141.415 31.6087L141.065 31.2513C140.074 32.2203 139.61 33.7926 139.61 35.9H140.11ZM141.417 31.6068C142.278 30.7451 143.488 30.3 145.08 30.3V29.8C143.392 29.8 142.041 30.2749 141.063 31.2532L141.417 31.6068ZM145.08 30.3C145.705 30.3 146.265 30.3586 146.764 30.4736L146.876 29.9864C146.334 29.8614 145.735 29.8 145.08 29.8V30.3ZM146.774 30.4758C147.305 30.5741 147.75 30.6909 148.113 30.8246L148.286 30.3554C147.889 30.2091 147.415 30.0859 146.865 29.9842L146.774 30.4758ZM147.963 30.5109L147.273 32.5809L147.747 32.7391L148.437 30.6691L147.963 30.5109ZM147.584 32.4214C147.258 32.3193 146.882 32.2178 146.458 32.1168L146.342 32.6032C146.758 32.7022 147.122 32.8007 147.435 32.8986L147.584 32.4214ZM146.458 32.1168C146.018 32.0122 145.569 31.96 145.11 31.96V32.46C145.531 32.46 145.941 32.5078 146.342 32.6032L146.458 32.1168ZM145.11 31.96C144.167 31.96 143.424 32.2857 142.928 32.9622L143.331 33.2578C143.715 32.7343 144.293 32.46 145.11 32.46V31.96ZM142.927 32.9634C142.461 33.6078 142.25 34.5927 142.25 35.87H142.75C142.75 34.6273 142.959 33.7722 143.332 33.2566L142.927 32.9634ZM142.25 35.87V36.92H142.75V35.87H142.25ZM142.5 37.17H146.55V36.67H142.5V37.17ZM146.3 36.92V38.96H146.8V36.92H146.3ZM159.202 37.52L159.072 37.7332L159.074 37.7344L159.202 37.52ZM161.482 40.07L161.256 40.1769L161.259 40.1818L161.482 40.07ZM162.292 45.47V45.72H162.542V45.47H162.292ZM151.282 45.47V45.22H151.027L151.032 45.4755L151.282 45.47ZM152.662 49.64L152.478 49.809L152.482 49.8129L152.662 49.64ZM159.112 50.78L159.169 51.0236L159.173 51.0225L159.112 50.78ZM161.572 49.94H161.822V49.5609L161.474 49.7102L161.572 49.94ZM161.572 52.25L161.673 52.4789L161.822 52.4133V52.25H161.572ZM159.142 53.03L159.093 52.7848L159.087 52.7861L159.142 53.03ZM152.242 52.37L152.124 52.5905L152.126 52.5913L152.242 52.37ZM149.512 49.61L149.29 49.7247L149.292 49.729L149.512 49.61ZM149.422 40.55L149.197 40.4425L149.195 40.4455L149.422 40.55ZM151.912 37.64L151.779 37.4284L151.777 37.4296L151.912 37.64ZM152.632 40.01L152.447 39.8425L152.447 39.8428L152.632 40.01ZM151.342 43.37L151.094 43.3458L151.067 43.62H151.342V43.37ZM159.532 43.37V43.62H159.786L159.782 43.3663L159.532 43.37ZM158.572 40.07L158.37 40.2162L158.371 40.2185L158.572 40.07ZM155.662 36.87C157.006 36.87 158.138 37.1617 159.072 37.7332L159.333 37.3068C158.306 36.6783 157.079 36.37 155.662 36.37V36.87ZM159.074 37.7344C160.029 38.3078 160.756 39.1195 161.256 40.1768L161.708 39.9632C161.168 38.8205 160.375 37.9322 159.331 37.3056L159.074 37.7344ZM161.259 40.1818C161.778 41.2206 162.042 42.4508 162.042 43.88H162.542C162.542 42.3892 162.267 41.0794 161.706 39.9582L161.259 40.1818ZM162.042 43.88V45.47H162.542V43.88H162.042ZM162.292 45.22H151.282V45.72H162.292V45.22ZM151.032 45.4755C151.073 47.3321 151.543 48.7892 152.478 49.8089L152.847 49.4711C152.021 48.5708 151.571 47.2479 151.532 45.4645L151.032 45.4755ZM152.482 49.8129C153.439 50.813 154.761 51.3 156.412 51.3V50.8C154.864 50.8 153.685 50.347 152.843 49.4671L152.482 49.8129ZM156.412 51.3C157.446 51.3 158.366 51.2088 159.169 51.0236L159.056 50.5364C158.299 50.7112 157.418 50.8 156.412 50.8V51.3ZM159.173 51.0225C159.987 50.819 160.82 50.5345 161.671 50.1698L161.474 49.7102C160.645 50.0655 159.837 50.341 159.052 50.5375L159.173 51.0225ZM161.322 49.94V52.25H161.822V49.94H161.322ZM161.472 52.0211C160.667 52.3745 159.874 52.6287 159.093 52.7849L159.191 53.2751C160.011 53.1113 160.838 52.8455 161.673 52.4789L161.472 52.0211ZM159.087 52.7861C158.31 52.9609 157.38 53.05 156.292 53.05V53.55C157.405 53.55 158.374 53.4591 159.197 53.2739L159.087 52.7861ZM156.292 53.05C154.807 53.05 153.498 52.7473 152.359 52.1487L152.126 52.5913C153.347 53.2327 154.738 53.55 156.292 53.55V53.05ZM152.36 52.1495C151.246 51.5539 150.37 50.6704 149.732 49.491L149.292 49.729C149.974 50.9896 150.919 51.9461 152.124 52.5905L152.36 52.1495ZM149.734 49.4953C149.117 48.2992 148.802 46.8308 148.802 45.08H148.302C148.302 46.8892 148.628 48.4408 149.29 49.7247L149.734 49.4953ZM148.802 45.08C148.802 43.3467 149.088 41.8742 149.649 40.6545L149.195 40.4455C148.597 41.7458 148.302 43.2933 148.302 45.08H148.802ZM149.648 40.6575C150.23 39.4349 151.031 38.5026 152.047 37.8504L151.777 37.4296C150.674 38.1374 149.814 39.1451 149.197 40.4425L149.648 40.6575ZM152.046 37.8516C153.081 37.1994 154.284 36.87 155.662 36.87V36.37C154.201 36.37 152.903 36.7206 151.779 37.4284L152.046 37.8516ZM155.632 38.53C154.313 38.53 153.241 38.9623 152.447 39.8425L152.818 40.1775C153.504 39.4177 154.432 39.03 155.632 39.03V38.53ZM152.447 39.8428C151.68 40.6941 151.237 41.8707 151.094 43.3458L151.591 43.3942C151.728 41.9893 152.144 40.9258 152.818 40.1772L152.447 39.8428ZM151.342 43.62H159.532V43.12H151.342V43.62ZM159.782 43.3663C159.762 41.9699 159.433 40.8146 158.773 39.9215L158.371 40.2185C158.952 41.0054 159.263 42.0501 159.282 43.3737L159.782 43.3663ZM158.775 39.9238C158.096 38.9816 157.029 38.53 155.632 38.53V39.03C156.916 39.03 157.809 39.4384 158.37 40.2162L158.775 39.9238ZM175.116 52.1L174.974 51.8942L175.116 52.1ZM167.526 53.03L167.471 53.2739L167.472 53.2742L167.526 53.03ZM165.396 52.28H165.146V52.4323L165.281 52.5022L165.396 52.28ZM165.396 49.88L165.508 49.6564L165.146 49.4755V49.88H165.396ZM167.706 50.78L167.632 51.0188L167.638 51.0206L167.706 50.78ZM173.406 50.54L173.549 50.7449L173.554 50.7416L173.406 50.54ZM173.976 47.72L174.182 47.5784L173.976 47.72ZM172.776 46.76L172.652 46.9771L172.655 46.9789L172.776 46.76ZM170.346 45.68L170.256 45.9133L170.258 45.9139L170.346 45.68ZM165.966 43.04L165.762 43.1853L165.966 43.04ZM167.016 37.73L166.878 37.5214L166.876 37.5226L167.016 37.73ZM174.126 36.92L174.068 37.1633L174.075 37.1647L174.126 36.92ZM176.526 37.7L176.756 37.7985L176.852 37.5745L176.63 37.4728L176.526 37.7ZM175.626 39.8L175.531 40.0312L175.759 40.125L175.856 39.8985L175.626 39.8ZM173.496 39.08L173.431 39.3213L173.496 39.08ZM168.726 39.32L168.856 39.5337L168.858 39.5324L168.726 39.32ZM168.276 41.87L168.082 42.0277L168.087 42.0337L168.276 41.87ZM169.566 42.77L169.454 42.9938L169.463 42.9978L169.566 42.77ZM172.026 43.79L171.935 44.0228L171.939 44.0243L172.026 43.79ZM174.636 44.96L174.515 45.1785L174.636 44.96ZM176.286 46.43L176.077 46.567L176.079 46.5704L176.286 46.43ZM176.606 48.56C176.606 50.0481 176.058 51.1464 174.974 51.8942L175.258 52.3058C176.494 51.4536 177.106 50.1919 177.106 48.56H176.606ZM174.974 51.8942C173.869 52.6562 172.364 53.05 170.436 53.05V53.55C172.427 53.55 174.043 53.1438 175.258 52.3058L174.974 51.8942ZM170.436 53.05C169.328 53.05 168.377 52.9609 167.58 52.7858L167.472 53.2742C168.315 53.4591 169.303 53.55 170.436 53.55V53.05ZM167.581 52.7861C166.798 52.61 166.109 52.3666 165.511 52.0578L165.281 52.5022C165.923 52.8334 166.654 53.09 167.471 53.2739L167.581 52.7861ZM165.646 52.28V49.88H165.146V52.28H165.646ZM165.284 50.1036C165.939 50.4312 166.723 50.7359 167.632 51.0187L167.78 50.5413C166.889 50.2641 166.133 49.9688 165.508 49.6564L165.284 50.1036ZM167.638 51.0206C168.58 51.2867 169.533 51.42 170.496 51.42V50.92C169.579 50.92 168.672 50.7933 167.774 50.5394L167.638 51.0206ZM170.496 51.42C171.85 51.42 172.885 51.21 173.549 50.7448L173.263 50.3352C172.727 50.71 171.822 50.92 170.496 50.92V51.42ZM173.554 50.7416C174.215 50.2564 174.556 49.6027 174.556 48.8H174.056C174.056 49.4373 173.796 49.9436 173.258 50.3384L173.554 50.7416ZM174.556 48.8C174.556 48.351 174.432 47.9414 174.182 47.5784L173.77 47.8616C173.96 48.1386 174.056 48.449 174.056 48.8H174.556ZM174.182 47.5784C173.93 47.2112 173.49 46.8684 172.897 46.5411L172.655 46.9789C173.222 47.2916 173.582 47.5888 173.77 47.8616L174.182 47.5784ZM172.9 46.5429C172.323 46.2133 171.499 45.8478 170.434 45.4461L170.258 45.9139C171.313 46.3122 172.109 46.6667 172.652 46.9771L172.9 46.5429ZM170.436 45.4467C169.403 45.0494 168.523 44.6537 167.795 44.2601L167.557 44.6999C168.309 45.1063 169.209 45.5106 170.256 45.9133L170.436 45.4467ZM167.795 44.2601C167.081 43.8742 166.543 43.4176 166.169 42.8947L165.762 43.1853C166.189 43.7824 166.791 44.2858 167.557 44.6999L167.795 44.2601ZM166.169 42.8947C165.807 42.3876 165.616 41.7224 165.616 40.88H165.116C165.116 41.7976 165.325 42.5724 165.762 43.1853L166.169 42.8947ZM165.616 40.88C165.616 39.6006 166.127 38.6296 167.155 37.9374L166.876 37.5226C165.705 38.3104 165.116 39.4394 165.116 40.88H165.616ZM167.154 37.9386C168.221 37.2334 169.629 36.87 171.396 36.87V36.37C169.563 36.37 168.051 36.7466 166.878 37.5214L167.154 37.9386ZM171.396 36.87C172.359 36.87 173.249 36.9683 174.068 37.1632L174.184 36.6768C173.323 36.4717 172.393 36.37 171.396 36.37V36.87ZM174.075 37.1647C174.918 37.3412 175.7 37.5956 176.422 37.9272L176.63 37.4728C175.872 37.1244 175.054 36.8588 174.177 36.6753L174.075 37.1647ZM176.296 37.6015L175.396 39.7015L175.856 39.8985L176.756 37.7985L176.296 37.6015ZM175.721 39.5688C175.031 39.2846 174.311 39.0413 173.561 38.8387L173.431 39.3213C174.161 39.5187 174.861 39.7554 175.531 40.0312L175.721 39.5688ZM173.561 38.8387C172.8 38.6328 172.018 38.53 171.216 38.53V39.03C171.974 39.03 172.712 39.1272 173.431 39.3213L173.561 38.8387ZM171.216 38.53C170.114 38.53 169.23 38.7126 168.594 39.1076L168.858 39.5324C169.381 39.2074 170.158 39.03 171.216 39.03V38.53ZM168.596 39.1063C167.97 39.4866 167.636 40.0334 167.636 40.73H168.136C168.136 40.2266 168.362 39.8334 168.856 39.5337L168.596 39.1063ZM167.636 40.73C167.636 41.2233 167.783 41.66 168.082 42.0276L168.47 41.7124C168.249 41.44 168.136 41.1167 168.136 40.73H167.636ZM168.087 42.0337C168.378 42.37 168.842 42.6877 169.454 42.9936L169.678 42.5464C169.09 42.2523 168.693 41.97 168.465 41.7063L168.087 42.0337ZM169.463 42.9978C170.088 43.2803 170.913 43.622 171.935 44.0227L172.117 43.5573C171.099 43.158 170.283 42.8197 169.669 42.5422L169.463 42.9978ZM171.939 44.0243C172.95 44.4012 173.808 44.7862 174.515 45.1785L174.757 44.7415C174.024 44.3338 173.141 43.9388 172.113 43.5557L171.939 44.0243ZM174.515 45.1785C175.206 45.5625 175.723 46.0267 176.077 46.567L176.495 46.293C176.089 45.6733 175.506 45.1574 174.757 44.7415L174.515 45.1785ZM176.079 46.5704C176.424 47.079 176.606 47.7365 176.606 48.56H177.106C177.106 47.6635 176.908 46.901 176.493 46.2896L176.079 46.5704ZM187.341 51.05L187.377 51.2978L187.388 51.2956L187.341 51.05ZM188.361 50.81H188.611V50.4715L188.288 50.5711L188.361 50.81ZM188.361 52.82L188.473 53.0436L188.611 52.9745V52.82H188.361ZM187.161 53.15L187.123 52.9027L187.114 52.9045L187.161 53.15ZM183.321 52.88L183.223 53.1099L183.231 53.113L183.321 52.88ZM181.611 51.35L181.398 51.4804L181.611 51.35ZM180.951 38.96H181.201V38.71H180.951V38.96ZM178.671 38.96H178.421V39.21H178.671V38.96ZM178.671 37.7L178.568 37.4724L178.421 37.539V37.7H178.671ZM180.981 36.65L181.085 36.8776L181.187 36.831L181.22 36.7234L180.981 36.65ZM182.031 33.23V32.98H181.847L181.792 33.1566L182.031 33.23ZM183.591 33.23H183.841V32.98H183.591V33.23ZM183.591 36.92H183.341V37.17H183.591V36.92ZM188.241 36.92H188.491V36.67H188.241V36.92ZM188.241 38.96V39.21H188.491V38.96H188.241ZM183.591 38.96V38.71H183.341V38.96H183.591ZM184.281 50.45L184.101 50.6231L184.108 50.6305L184.281 50.45ZM186.111 51.39C186.524 51.39 186.946 51.3591 187.377 51.2975L187.306 50.8025C186.897 50.8609 186.499 50.89 186.111 50.89V51.39ZM187.388 51.2956C187.813 51.2147 188.163 51.1327 188.435 51.0489L188.288 50.5711C188.04 50.6473 187.71 50.7253 187.295 50.8044L187.388 51.2956ZM188.111 50.81V52.82H188.611V50.81H188.111ZM188.25 52.5964C188.003 52.7195 187.633 52.8246 187.123 52.9029L187.199 53.3971C187.73 53.3154 188.16 53.2005 188.473 53.0436L188.25 52.5964ZM187.114 52.9045C186.608 53.0018 186.124 53.05 185.661 53.05V53.55C186.159 53.55 186.675 53.4982 187.209 53.3955L187.114 52.9045ZM185.661 53.05C184.85 53.05 184.101 52.9148 183.412 52.647L183.231 53.113C183.982 53.4052 184.793 53.55 185.661 53.55V53.05ZM183.42 52.6502C182.773 52.3728 182.241 51.9004 181.825 51.2196L181.398 51.4804C181.862 52.2396 182.47 52.7872 183.223 53.1098L183.42 52.6502ZM181.825 51.2196C181.418 50.5547 181.201 49.5969 181.201 48.32H180.701C180.701 49.6431 180.924 50.7053 181.398 51.4804L181.825 51.2196ZM181.201 48.32V38.96H180.701V48.32H181.201ZM180.951 38.71H178.671V39.21H180.951V38.71ZM178.921 38.96V37.7H178.421V38.96H178.921ZM178.775 37.9276L181.085 36.8776L180.878 36.4224L178.568 37.4724L178.775 37.9276ZM181.22 36.7234L182.27 33.3034L181.792 33.1566L180.742 36.5766L181.22 36.7234ZM182.031 33.48H183.591V32.98H182.031V33.48ZM183.341 33.23V36.92H183.841V33.23H183.341ZM183.591 37.17H188.241V36.67H183.591V37.17ZM187.991 36.92V38.96H188.491V36.92H187.991ZM188.241 38.71H183.591V39.21H188.241V38.71ZM183.341 38.96V48.26H183.841V38.96H183.341ZM183.341 48.26C183.341 49.2742 183.579 50.0784 184.101 50.623L184.462 50.277C184.064 49.8616 183.841 49.2058 183.841 48.26H183.341ZM184.108 50.6305C184.64 51.1403 185.315 51.39 186.111 51.39V50.89C185.428 50.89 184.882 50.6797 184.454 50.2695L184.108 50.6305ZM189.061 36.92V36.67H188.691L188.829 37.0131L189.061 36.92ZM191.881 36.92L192.115 36.8311L192.054 36.67H191.881V36.92ZM195.361 46.07L195.595 45.9822L195.595 45.9811L195.361 46.07ZM196.171 48.38L195.933 48.4571L195.934 48.4591L196.171 48.38ZM196.711 50.45L196.465 50.4947L196.503 50.7H196.711V50.45ZM196.831 50.45V50.7H197.028L197.074 50.5083L196.831 50.45ZM197.401 48.5L197.639 48.5773L197.64 48.5756L197.401 48.5ZM198.211 46.04L197.976 45.9556L197.975 45.9592L198.211 46.04ZM201.481 36.92V36.67H201.305L201.246 36.8356L201.481 36.92ZM204.331 36.92L204.565 37.0085L204.693 36.67H204.331V36.92ZM197.401 55.22L197.167 55.1315L197.167 55.1336L197.401 55.22ZM195.211 58.85L195.034 58.6732L195.033 58.6752L195.211 58.85ZM190.291 60.11L190.332 59.863L190.319 59.8615L190.291 60.11ZM189.361 59.96H189.111V60.1589L189.305 60.2036L189.361 59.96ZM189.361 57.86L189.406 57.614L189.111 57.5604V57.86H189.361ZM190.141 57.98L190.108 58.2278L190.11 58.2281L190.141 57.98ZM193.351 57.26L193.184 57.0738L193.181 57.0768L193.351 57.26ZM194.701 55.19L194.469 55.0983L194.467 55.1028L194.701 55.19ZM195.541 53.06L195.774 53.1517L195.81 53.0592L195.773 52.9669L195.541 53.06ZM189.061 37.17H191.881V36.67H189.061V37.17ZM191.648 37.0089L195.128 46.1589L195.595 45.9811L192.115 36.8311L191.648 37.0089ZM195.127 46.1578C195.426 46.9546 195.695 47.721 195.933 48.4571L196.409 48.3029C196.168 47.559 195.897 46.7854 195.595 45.9822L195.127 46.1578ZM195.934 48.4591C196.171 49.1693 196.348 49.8478 196.465 50.4947L196.957 50.4053C196.835 49.7322 196.652 49.0307 196.408 48.3009L195.934 48.4591ZM196.711 50.7H196.831V50.2H196.711V50.7ZM197.074 50.5083C197.192 50.0174 197.38 49.3744 197.639 48.5773L197.163 48.4227C196.903 49.2256 196.71 49.8826 196.588 50.3917L197.074 50.5083ZM197.64 48.5756C197.899 47.7573 198.168 46.9391 198.448 46.1208L197.975 45.9592C197.694 46.7809 197.424 47.6027 197.163 48.4244L197.64 48.5756ZM198.447 46.1244L201.717 37.0044L201.246 36.8356L197.976 45.9556L198.447 46.1244ZM201.481 37.17H204.331V36.67H201.481V37.17ZM204.097 36.8315L197.167 55.1315L197.635 55.3085L204.565 37.0085L204.097 36.8315ZM197.167 55.1336C196.616 56.6286 195.903 57.8048 195.034 58.6732L195.388 59.0268C196.32 58.0952 197.067 56.8514 197.636 55.3064L197.167 55.1336ZM195.033 58.6752C194.21 59.5161 193.061 59.95 191.551 59.95V60.45C193.161 60.45 194.452 59.9839 195.39 59.0248L195.033 58.6752ZM191.551 59.95C191.081 59.95 190.675 59.9206 190.332 59.8634L190.25 60.3566C190.627 60.4194 191.062 60.45 191.551 60.45V59.95ZM190.319 59.8615C189.965 59.8222 189.665 59.7736 189.417 59.7164L189.305 60.2036C189.577 60.2664 189.897 60.3178 190.264 60.3585L190.319 59.8615ZM189.611 59.96V57.86H189.111V59.96H189.611ZM189.317 58.106C189.541 58.1469 189.806 58.1875 190.108 58.2278L190.174 57.7322C189.877 57.6925 189.621 57.6531 189.406 57.614L189.317 58.106ZM190.11 58.2281C190.441 58.2694 190.781 58.29 191.131 58.29V57.79C190.801 57.79 190.481 57.7706 190.172 57.7319L190.11 58.2281ZM191.131 58.29C192.101 58.29 192.906 58.0146 193.521 57.4432L193.181 57.0768C192.676 57.5454 192.002 57.79 191.131 57.79V58.29ZM193.518 57.4461C194.133 56.8947 194.604 56.1684 194.936 55.2772L194.467 55.1028C194.159 55.9316 193.729 56.5853 193.184 57.0739L193.518 57.4461ZM194.934 55.2817L195.774 53.1517L195.309 52.9683L194.469 55.0983L194.934 55.2817ZM195.773 52.9669L189.293 36.8269L188.829 37.0131L195.309 53.1531L195.773 52.9669ZM209.514 53V53.25H209.764V53H209.514ZM206.874 53H206.624V53.25H206.874V53ZM206.874 30.2V29.95H206.624V30.2H206.874ZM209.514 30.2H209.764V29.95H209.514V30.2ZM209.514 52.75H206.874V53.25H209.514V52.75ZM207.124 53V30.2H206.624V53H207.124ZM206.874 30.45H209.514V29.95H206.874V30.45ZM209.264 30.2V53H209.764V30.2H209.264ZM224.359 37.52L224.228 37.7332L224.23 37.7344L224.359 37.52ZM226.639 40.07L226.413 40.1769L226.415 40.1818L226.639 40.07ZM227.449 45.47V45.72H227.699V45.47H227.449ZM216.439 45.47V45.22H216.183L216.189 45.4755L216.439 45.47ZM217.819 49.64L217.634 49.809L217.638 49.8129L217.819 49.64ZM224.269 50.78L224.325 51.0236L224.329 51.0225L224.269 50.78ZM226.729 49.94H226.979V49.5609L226.63 49.7102L226.729 49.94ZM226.729 52.25L226.829 52.4789L226.979 52.4133V52.25H226.729ZM224.299 53.03L224.25 52.7848L224.244 52.7861L224.299 53.03ZM217.399 52.37L217.281 52.5905L217.282 52.5913L217.399 52.37ZM214.669 49.61L214.446 49.7247L214.449 49.729L214.669 49.61ZM214.579 40.55L214.353 40.4425L214.352 40.4455L214.579 40.55ZM217.069 37.64L216.935 37.4284L216.934 37.4296L217.069 37.64ZM217.789 40.01L217.603 39.8425L217.603 39.8428L217.789 40.01ZM216.499 43.37L216.25 43.3458L216.223 43.62H216.499V43.37ZM224.689 43.37V43.62H224.942L224.939 43.3663L224.689 43.37ZM223.729 40.07L223.526 40.2162L223.527 40.2185L223.729 40.07ZM220.819 36.87C222.162 36.87 223.295 37.1617 224.228 37.7332L224.489 37.3068C223.463 36.6783 222.235 36.37 220.819 36.37V36.87ZM224.23 37.7344C225.186 38.3078 225.913 39.1195 226.413 40.1768L226.865 39.9632C226.324 38.8205 225.531 37.9322 224.487 37.3056L224.23 37.7344ZM226.415 40.1818C226.934 41.2206 227.199 42.4508 227.199 43.88H227.699C227.699 42.3892 227.423 41.0794 226.862 39.9582L226.415 40.1818ZM227.199 43.88V45.47H227.699V43.88H227.199ZM227.449 45.22H216.439V45.72H227.449V45.22ZM216.189 45.4755C216.229 47.3321 216.7 48.7892 217.634 49.8089L218.003 49.4711C217.178 48.5708 216.728 47.2479 216.689 45.4645L216.189 45.4755ZM217.638 49.8129C218.596 50.813 219.917 51.3 221.569 51.3V50.8C220.02 50.8 218.842 50.347 217.999 49.4671L217.638 49.8129ZM221.569 51.3C222.603 51.3 223.522 51.2088 224.325 51.0236L224.212 50.5364C223.455 50.7112 222.575 50.8 221.569 50.8V51.3ZM224.329 51.0225C225.143 50.819 225.976 50.5345 226.827 50.1698L226.63 49.7102C225.801 50.0655 224.994 50.341 224.208 50.5375L224.329 51.0225ZM226.479 49.94V52.25H226.979V49.94H226.479ZM226.628 52.0211C225.823 52.3745 225.03 52.6287 224.25 52.7849L224.348 53.2751C225.167 53.1113 225.994 52.8455 226.829 52.4789L226.628 52.0211ZM224.244 52.7861C223.467 52.9609 222.536 53.05 221.449 53.05V53.55C222.561 53.55 223.531 53.4591 224.353 53.2739L224.244 52.7861ZM221.449 53.05C219.963 53.05 218.654 52.7473 217.515 52.1487L217.282 52.5913C218.503 53.2327 219.894 53.55 221.449 53.55V53.05ZM217.516 52.1495C216.402 51.5539 215.526 50.6704 214.888 49.491L214.449 49.729C215.131 50.9896 216.075 51.9461 217.281 52.5905L217.516 52.1495ZM214.891 49.4953C214.273 48.2992 213.959 46.8308 213.959 45.08H213.459C213.459 46.8892 213.784 48.4408 214.446 49.7247L214.891 49.4953ZM213.959 45.08C213.959 43.3467 214.244 41.8742 214.806 40.6545L214.352 40.4455C213.753 41.7458 213.459 43.2933 213.459 45.08H213.959ZM214.804 40.6575C215.386 39.4349 216.187 38.5026 217.204 37.8504L216.934 37.4296C215.83 38.1374 214.971 39.1451 214.353 40.4425L214.804 40.6575ZM217.202 37.8516C218.238 37.1994 219.44 36.87 220.819 36.87V36.37C219.357 36.37 218.06 36.7206 216.935 37.4284L217.202 37.8516ZM220.789 38.53C219.469 38.53 218.397 38.9623 217.603 39.8425L217.974 40.1775C218.66 39.4177 219.588 39.03 220.789 39.03V38.53ZM217.603 39.8428C216.837 40.6941 216.393 41.8707 216.25 43.3458L216.747 43.3942C216.884 41.9893 217.301 40.9258 217.974 40.1772L217.603 39.8428ZM216.499 43.62H224.689V43.12H216.499V43.62ZM224.939 43.3663C224.918 41.9699 224.589 40.8146 223.93 39.9215L223.527 40.2185C224.108 41.0054 224.419 42.0501 224.439 43.3737L224.939 43.3663ZM223.931 39.9238C223.252 38.9816 222.185 38.53 220.789 38.53V39.03C222.072 39.03 222.965 39.4384 223.526 40.2162L223.931 39.9238Z" fill="#4269AE"/>
<path d="M36.6751 76.048H40.9871V75.124H36.6751V70.482H35.6851V75.124H31.3511V76.048H35.6851V80.822H36.6751V76.048ZM58.8532 83H63.5392C68.0932 83 70.9532 79.744 70.9532 75.674C70.9532 71.648 68.0932 68.326 63.5392 68.326H58.8532V83ZM60.1072 81.856V69.47H63.5392C67.4332 69.47 69.6332 72.242 69.6332 75.674C69.6332 79.106 67.4112 81.856 63.5392 81.856H60.1072ZM99.2962 83H100.704L94.6982 68.326H93.1362L87.1302 83H88.5382L90.0122 79.392H97.8222L99.2962 83ZM93.9062 69.558L97.4262 78.248H90.4082L93.9062 69.558ZM118.27 83H119.524V68.326H118.27V83ZM138.569 83H146.929V81.856H139.823V68.326H138.569V83ZM166.703 83H167.979V76.73L173.809 68.326H172.291L167.341 75.542L162.391 68.326H160.873L166.703 76.73V83ZM193.335 76.048H197.647V75.124H193.335V70.482H192.345V75.124H188.011V76.048H192.345V80.822H193.335V76.048Z" fill="black"/>
</svg>
